<svg xmlns="http://www.w3.org/2000/svg" viewBox="0 0 32 32" fill="none">
  <path d="M 15,6 L 15,9 L 14,10 L 14,12 L 13,13 L 13,15 L 12,16 L 12,17 L 11,18 L 11,20 L 10,21 L 10,23 L 9,24 L 7,24 L 7,25 L 14,25 L 15,26 L 15,29 L 14,30 L 11,30 L 11,31 L 29,31 L 29,30 L 30,29 L 30,28 L 31,27 L 31,26 L 30,26 L 30,27 L 27,30 L 19,30 L 18,29 L 18,27 L 20,25 L 23,25 L 25,23 L 25,22 L 26,21 L 26,20 L 25,20 L 24,21 L 22,21 L 21,20 L 21,18 L 22,17 L 22,16 L 23,15 L 23,14 L 24,13 L 25,13 L 25,12 L 20,12 L 20,16 L 19,17 L 19,18 L 18,19 L 18,21 L 17,22 L 17,23 L 16,24 L 14,24 L 13,23 L 13,20 L 14,19 L 14,18 L 15,17 L 15,15 L 16,14 L 16,12 L 17,11 L 17,9 L 19,7 L 19,6 Z" fill="#C8A44B" fill-rule="evenodd"/>
</svg>
